<svg version="1.1" id="Layer_1" xmlns="http://www.w3.org/2000/svg" xmlns:xlink="http://www.w3.org/1999/xlink" x="0px" y="0px"
	 width="100%" viewBox="0 0 1354 1883" enable-background="new 0 0 1354 1883" xml:space="preserve">
<path fill="#FFFFFF" opacity="1.000000" stroke="none" 
	d="
M1355.000000,45.000008 
	C1355.000000,657.922852 1355.000000,1270.845703 1355.000000,1884.000000 
	C919.965088,1884.000000 484.930176,1884.000000 49.598671,1883.650024 
	C52.467537,1882.105347 56.078445,1881.526733 58.724419,1879.613525 
	C73.279419,1869.089722 87.671898,1858.336304 101.980476,1847.477661 
	C120.867340,1833.144287 139.596405,1818.603271 158.447449,1804.222534 
	C173.254364,1792.926636 188.178482,1781.784424 202.987854,1770.491821 
	C223.140381,1755.124878 243.180466,1739.610107 263.366608,1724.287720 
	C283.273041,1709.177612 303.380157,1694.331543 323.255157,1679.180542 
	C345.365540,1662.325439 367.241882,1645.163208 389.352844,1628.308838 
	C409.228271,1613.158325 429.362976,1598.348022 449.238007,1583.197144 
	C471.348358,1566.341919 493.242920,1549.203857 515.327881,1532.315063 
	C534.276550,1517.824829 553.396301,1503.558350 572.375305,1489.107422 
	C589.676331,1475.933960 606.853394,1462.597656 624.152100,1449.421143 
	C641.829712,1435.956177 659.623718,1422.644165 677.302368,1409.180420 
	C694.734253,1395.904785 712.051758,1382.478882 729.482117,1369.201050 
	C745.596191,1356.925781 761.833557,1344.812378 777.943298,1332.531494 
	C796.799011,1318.157227 815.533142,1303.623047 834.397949,1289.260742 
	C853.246155,1274.911133 872.205688,1260.707886 891.088501,1246.403564 
	C907.630249,1233.872681 924.131836,1221.288452 940.653870,1208.731323 
	C953.277649,1199.136963 965.914490,1189.559937 978.529480,1179.953857 
	C996.470947,1166.291748 1014.254883,1152.417236 1032.381348,1139.005371 
	C1044.183594,1130.272705 1052.900635,1119.625366 1052.833618,1104.501953 
	C1052.732544,1081.632690 1036.875854,1064.191284 1011.946411,1064.097168 
	C939.295959,1063.823120 866.643799,1064.001343 793.992310,1063.993164 
	C791.996216,1063.993042 790.000061,1063.891113 788.135315,1063.531738 
	C791.000977,1060.157349 793.774780,1057.122314 796.462708,1054.013062 
	C806.883118,1041.958862 817.273804,1029.879272 827.680054,1017.812927 
	C836.799072,1007.239197 845.924011,996.670532 855.359375,985.965576 
	C864.503235,975.666016 873.304565,965.474609 882.172913,955.341797 
	C892.786377,943.215088 903.457031,931.138489 914.416260,918.907593 
	C918.193481,914.644775 921.612244,910.475647 925.129883,906.391724 
	C934.435486,895.588257 943.783997,884.821716 953.423096,873.909790 
	C961.908875,864.591309 970.142578,855.451965 978.237000,846.190979 
	C981.339417,842.641541 984.124023,838.814148 987.361450,834.972290 
	C989.074768,833.427246 990.565857,832.098450 991.872131,830.607666 
	C1005.802368,814.711182 1019.733093,798.815002 1033.590210,782.855042 
	C1036.902100,779.040710 1039.941895,774.990173 1043.412354,770.914368 
	C1047.504639,766.659119 1051.374512,762.610657 1055.063232,758.403442 
	C1068.803345,742.731628 1082.512817,727.032715 1096.166626,711.285706 
	C1099.588745,707.339050 1102.760376,703.175232 1106.353882,698.967407 
	C1113.962524,690.528809 1121.243408,682.215271 1128.572144,673.944214 
	C1136.785156,664.675049 1145.101929,655.497314 1153.264038,646.183716 
	C1164.237061,633.662476 1174.932983,620.894348 1186.068970,608.520996 
	C1196.271240,597.185181 1200.533691,584.337463 1196.898804,569.419434 
	C1193.266113,554.510376 1177.551392,540.753479 1160.958008,540.864014 
	C1105.966797,541.230408 1050.971436,540.988647 995.977600,541.000610 
	C986.982300,541.002625 977.987061,541.107727 968.527466,541.102173 
	C955.374023,540.972046 942.684875,540.905029 930.122559,540.534485 
	C937.362549,532.121765 944.454224,523.993774 951.593689,515.907898 
	C962.753113,503.269165 973.944763,490.658905 985.431091,477.892395 
	C986.008118,477.163513 986.157043,476.474030 986.563293,476.009674 
	C996.266296,464.918274 1006.005615,453.858612 1015.720154,442.777283 
	C1025.862793,431.207581 1035.986450,419.621277 1046.431396,407.911377 
	C1050.564697,403.287750 1054.316528,398.734314 1058.220093,394.314850 
	C1066.502563,384.937256 1074.921875,375.680237 1083.179199,366.280731 
	C1094.455200,353.445221 1105.646729,340.535583 1116.845459,327.632385 
	C1122.208252,321.453247 1127.504028,315.215912 1132.975464,308.694763 
	C1140.484741,300.020233 1147.859985,291.665741 1155.210327,283.289368 
	C1167.855347,268.879181 1180.484863,254.455322 1193.432373,239.905914 
	C1205.713989,226.132675 1217.710327,212.513702 1229.641724,198.837952 
	C1234.775879,192.953125 1239.775146,186.950623 1244.981934,180.692566 
	C1252.517090,171.991882 1259.895264,163.590485 1267.297852,155.210663 
	C1280.041138,140.785110 1292.836914,126.405762 1305.526367,111.933022 
	C1308.860107,108.130760 1311.883789,104.056549 1315.360840,99.971481 
	C1324.232422,90.267639 1332.837524,80.738647 1341.327271,71.107925 
	C1343.911133,68.176712 1346.762451,65.253265 1348.454102,61.815826 
	C1351.100220,56.438919 1352.863037,50.627415 1355.000000,45.000008 
z"/>
<path fill="#FFFFFF" opacity="1.000000" stroke="none" 
	d="
M1.000000,1838.000000 
	C1.000000,1225.751831 1.000000,613.503662 1.000000,1.000000 
	C335.368195,1.000000 669.736450,1.000000 1004.364502,1.384754 
	C999.755249,2.336052 994.771118,2.421027 990.037048,3.552279 
	C969.221497,8.526268 953.771423,21.289759 941.021301,38.314259 
	C930.972717,49.859657 921.089050,61.113220 911.159424,72.326141 
	C900.456970,84.411926 889.665588,96.419334 879.015259,108.550720 
	C876.136902,111.829422 873.629272,115.433571 870.642700,119.026688 
	C863.097778,127.403168 855.856567,135.636932 848.626587,143.880554 
	C838.375671,155.568497 828.133118,167.263687 817.576294,179.091278 
	C816.185303,180.643234 815.188293,182.133408 814.011841,183.465027 
	C798.591248,200.919464 783.113403,218.323425 767.730225,235.810699 
	C764.291321,239.719955 761.162292,243.901794 757.583374,248.088989 
	C752.759827,253.406448 748.252502,258.600952 743.725464,263.778198 
	C732.072998,277.104248 720.406738,290.418213 708.755554,303.745361 
	C696.459900,317.809692 684.175232,331.883698 671.575928,346.086243 
	C667.463257,350.691528 663.729370,355.224945 659.844971,359.625488 
	C646.839661,374.359131 633.743286,389.012512 620.767151,403.771698 
	C617.338013,407.671997 614.216064,411.842468 610.642212,416.025787 
	C607.834473,418.995819 605.350830,421.840698 602.838501,424.660034 
	C594.519897,433.995087 586.132141,443.269287 577.879150,452.661926 
	C564.116028,468.325745 550.406738,484.037231 536.742737,499.787598 
	C533.323242,503.729218 530.162659,507.895477 526.575562,512.088074 
	C524.865417,513.633240 523.373108,514.971497 522.074097,516.476562 
	C511.896698,528.268555 501.829224,540.156128 491.581696,551.886597 
	C483.247070,561.427246 474.651825,570.739990 466.294434,580.261169 
	C463.305786,583.665955 460.675446,587.385254 457.573853,591.087280 
	C438.142365,613.125305 419.018524,635.037231 399.584290,657.078918 
	C398.112732,658.386230 396.878815,659.501038 395.801666,660.750977 
	C385.673615,672.503662 375.644836,684.342773 365.440582,696.028687 
	C357.139984,705.534546 348.579926,714.813538 340.257111,724.300293 
	C337.281738,727.691833 334.664490,731.397522 331.575378,735.085205 
	C326.157227,740.992615 321.331451,747.059937 315.873383,752.492004 
	C306.920959,761.401611 302.687592,771.831604 302.916931,784.498108 
	C303.259491,803.415710 320.605591,821.018616 339.677704,821.013611 
	C414.457184,820.994080 489.236694,821.001709 564.016174,821.008362 
	C566.010681,821.008545 568.005249,821.112305 569.992920,821.512329 
	C560.156250,833.240662 550.364075,844.657227 540.487183,855.999939 
	C528.011902,870.326721 515.467468,884.593201 502.637451,899.028687 
	C498.375702,903.785828 494.483734,908.447815 490.471527,913.004089 
	C482.526459,922.026489 474.456848,930.939575 466.544952,939.990723 
	C455.729218,952.363770 445.043823,964.850769 434.240570,977.234741 
	C428.717072,983.566467 422.995209,989.725220 417.474915,996.059692 
	C406.787109,1008.324158 396.223358,1020.696716 385.522003,1032.949219 
	C377.613678,1042.003662 369.513824,1050.890747 361.598114,1059.938843 
	C350.667816,1072.432983 339.857056,1085.031494 328.942322,1097.539307 
	C323.527069,1103.744873 317.935394,1109.796509 312.526611,1116.007568 
	C301.842957,1128.276001 291.275940,1140.645996 280.574432,1152.898560 
	C272.666107,1161.953247 264.551575,1170.827881 256.654236,1179.891846 
	C246.295151,1191.781494 236.123276,1203.834351 225.750076,1215.711426 
	C217.513840,1225.141846 209.039520,1234.364014 200.771759,1243.767334 
	C186.871628,1259.576538 173.163422,1275.555786 159.159058,1291.271484 
	C149.561829,1302.041504 144.163528,1313.823975 146.925400,1328.702393 
	C150.059769,1345.587524 165.192215,1360.076660 183.054062,1360.048584 
	C257.373810,1359.931885 331.693848,1359.998169 406.013763,1360.006348 
	C408.009613,1360.006592 410.005432,1360.110596 411.866577,1360.467041 
	C409.109314,1363.724243 406.484467,1366.678345 403.864655,1369.637085 
	C396.106598,1378.398682 388.304565,1387.122192 380.604492,1395.934570 
	C369.667786,1408.451172 358.832245,1421.056152 347.902252,1433.578613 
	C342.480438,1439.790527 336.887573,1445.853149 331.472046,1452.070312 
	C320.773071,1464.353027 310.187653,1476.734741 299.470764,1489.001831 
	C291.552612,1498.065430 283.440918,1506.959839 275.522797,1516.023438 
	C264.806061,1528.290527 254.236221,1540.686035 243.519501,1552.953125 
	C235.601379,1562.016724 227.477676,1570.901001 219.574463,1579.977295 
	C209.314575,1591.760620 199.241257,1603.706421 188.976639,1615.485596 
	C180.960709,1624.684326 172.705917,1633.674805 164.682846,1642.867554 
	C154.190598,1654.889282 143.879410,1667.069214 133.382111,1679.086426 
	C125.245598,1688.400757 116.868866,1697.505249 108.732491,1706.819702 
	C98.235069,1718.837036 87.928307,1731.020996 77.430832,1743.038330 
	C69.294479,1752.352661 60.914852,1761.454712 52.781700,1770.771851 
	C42.397644,1782.667236 32.324524,1794.838013 21.793766,1806.600342 
	C13.301210,1816.086060 4.351513,1825.157104 1.000000,1838.000000 
z"/>
<path fill="#FFC200" opacity="1.000000" stroke="none" 
	d="
M1.000000,1838.464600 
	C4.351513,1825.157104 13.301210,1816.086060 21.793766,1806.600342 
	C32.324524,1794.838013 42.397644,1782.667236 52.781700,1770.771851 
	C60.914852,1761.454712 69.294479,1752.352661 77.430832,1743.038330 
	C87.928307,1731.020996 98.235069,1718.837036 108.732491,1706.819702 
	C116.868866,1697.505249 125.245598,1688.400757 133.382111,1679.086426 
	C143.879410,1667.069214 154.190598,1654.889282 164.682846,1642.867554 
	C172.705917,1633.674805 180.960709,1624.684326 188.976639,1615.485596 
	C199.241257,1603.706421 209.314575,1591.760620 219.574463,1579.977295 
	C227.477676,1570.901001 235.601379,1562.016724 243.519501,1552.953125 
	C254.236221,1540.686035 264.806061,1528.290527 275.522797,1516.023438 
	C283.440918,1506.959839 291.552612,1498.065430 299.470764,1489.001831 
	C310.187653,1476.734741 320.773071,1464.353027 331.472046,1452.070312 
	C336.887573,1445.853149 342.480438,1439.790527 347.902252,1433.578613 
	C358.832245,1421.056152 369.667786,1408.451172 380.604492,1395.934570 
	C388.304565,1387.122192 396.106598,1378.398682 403.864655,1369.637085 
	C406.484467,1366.678345 409.109314,1363.724243 412.330200,1360.400024 
	C435.616791,1359.966675 458.305054,1359.901367 481.458008,1359.904907 
	C484.919647,1359.984863 487.917511,1359.952881 490.913422,1360.013550 
	C513.661255,1360.474731 533.124756,1352.443481 548.390747,1335.834717 
	C564.117737,1318.724365 578.869019,1300.717285 594.367188,1282.988037 
	C596.313354,1281.215576 598.030212,1279.636841 599.551392,1277.887939 
	C611.304626,1264.373657 623.019958,1250.826538 634.996826,1237.124268 
	C637.343262,1234.614990 639.510010,1232.329712 641.523865,1229.916748 
	C648.402344,1221.675171 655.226990,1213.388428 662.407104,1205.046631 
	C670.605713,1196.018433 678.469482,1187.062866 686.614075,1177.944580 
	C695.757080,1167.768677 704.696045,1157.822021 713.449036,1147.714478 
	C717.843872,1142.639648 721.900513,1137.271973 726.407410,1131.890259 
	C727.563538,1130.964966 728.505005,1130.259521 729.268494,1129.396484 
	C740.078857,1117.178467 750.917847,1104.984985 761.639648,1092.689575 
	C769.569641,1083.595581 777.339417,1074.361938 785.470581,1065.066650 
	C786.508362,1064.573975 787.256165,1064.205444 788.003967,1063.836792 
	C790.000061,1063.891113 791.996216,1063.993042 793.992310,1063.993164 
	C866.643799,1064.001343 939.295959,1063.823120 1011.946411,1064.097168 
	C1036.875854,1064.191284 1052.732544,1081.632690 1052.833618,1104.501953 
	C1052.900635,1119.625366 1044.183594,1130.272705 1032.381348,1139.005371 
	C1014.254883,1152.417236 996.470947,1166.291748 978.529480,1179.953857 
	C965.914490,1189.559937 953.277649,1199.136963 940.653870,1208.731323 
	C924.131836,1221.288452 907.630249,1233.872681 891.088501,1246.403564 
	C872.205688,1260.707886 853.246155,1274.911133 834.397949,1289.260742 
	C815.533142,1303.623047 796.799011,1318.157227 777.943298,1332.531494 
	C761.833557,1344.812378 745.596191,1356.925781 729.482117,1369.201050 
	C712.051758,1382.478882 694.734253,1395.904785 677.302368,1409.180420 
	C659.623718,1422.644165 641.829712,1435.956177 624.152100,1449.421143 
	C606.853394,1462.597656 589.676331,1475.933960 572.375305,1489.107422 
	C553.396301,1503.558350 534.276550,1517.824829 515.327881,1532.315063 
	C493.242920,1549.203857 471.348358,1566.341919 449.238007,1583.197144 
	C429.362976,1598.348022 409.228271,1613.158325 389.352844,1628.308838 
	C367.241882,1645.163208 345.365540,1662.325439 323.255157,1679.180542 
	C303.380157,1694.331543 283.273041,1709.177612 263.366608,1724.287720 
	C243.180466,1739.610107 223.140381,1755.124878 202.987854,1770.491821 
	C188.178482,1781.784424 173.254364,1792.926636 158.447449,1804.222534 
	C139.596405,1818.603271 120.867340,1833.144287 101.980476,1847.477661 
	C87.671898,1858.336304 73.279419,1869.089722 58.724419,1879.613525 
	C56.078445,1881.526733 52.467537,1882.105347 49.151039,1883.650024 
	C43.311958,1884.000000 37.623920,1884.000000 31.323174,1883.653931 
	C23.500402,1881.389160 17.414284,1877.757202 11.906177,1872.598267 
	C5.785264,1866.865479 3.808411,1859.293335 1.000000,1852.000000 
	C1.000000,1847.643066 1.000000,1843.286255 1.000000,1838.464600 
z"/>
<path fill="#7007EE" opacity="1.000000" stroke="none" 
	d="
M941.165955,38.004559 
	C953.771423,21.289759 969.221497,8.526268 990.037048,3.552279 
	C994.771118,2.421027 999.755249,2.336052 1004.812134,1.384754 
	C1109.020874,1.000000 1213.041870,1.000000 1317.703857,1.376800 
	C1331.430298,2.274078 1341.542847,8.412820 1348.384277,19.192270 
	C1351.552368,24.183714 1352.852905,30.360552 1355.000000,36.000000 
	C1355.000000,38.700012 1355.000000,41.400028 1355.000000,44.550026 
	C1352.863037,50.627415 1351.100220,56.438919 1348.454102,61.815826 
	C1346.762451,65.253265 1343.911133,68.176712 1341.327271,71.107925 
	C1332.837524,80.738647 1324.232422,90.267639 1315.108154,99.669739 
	C1300.870605,97.231819 1287.197144,94.956482 1273.522217,92.688873 
	C1258.048706,90.123047 1242.578125,87.539803 1227.098999,85.008469 
	C1207.868896,81.863724 1188.627563,78.788040 1169.398193,75.639221 
	C1147.890137,72.117249 1126.397217,68.501945 1104.884033,65.010719 
	C1085.487183,61.862934 1066.063599,58.880726 1046.667358,55.729027 
	C1024.993042,52.207180 1003.330750,48.609932 981.673950,44.981270 
	C968.161011,42.717129 954.667969,40.334179 941.165955,38.004559 
z"/>
<path fill="#FFFFFF" opacity="1.000000" stroke="none" 
	d="
M1355.000000,35.531342 
	C1352.852905,30.360552 1351.552368,24.183714 1348.384277,19.192270 
	C1341.542847,8.412820 1331.430298,2.274078 1318.172485,1.376800 
	C1330.257935,1.000000 1342.515747,1.000000 1355.000000,1.000000 
	C1355.000000,12.353227 1355.000000,23.707954 1355.000000,35.531342 
z"/>
<path fill="#FFFFFF" opacity="1.000000" stroke="none" 
	d="
M1.000000,1852.468628 
	C3.808411,1859.293335 5.785264,1866.865479 11.906177,1872.598267 
	C17.414284,1877.757202 23.500402,1881.389160 30.855234,1883.653931 
	C21.071098,1884.000000 11.142198,1884.000000 1.000000,1884.000000 
	C1.000000,1873.646729 1.000000,1863.291992 1.000000,1852.468628 
z"/>
<path fill="#4704E6" opacity="1.000000" stroke="none" 
	d="
M671.885742,345.953461 
	C684.175232,331.883698 696.459900,317.809692 708.755554,303.745361 
	C720.406738,290.418213 732.072998,277.104248 743.725464,263.778198 
	C748.252502,258.600952 752.759827,253.406448 758.010986,248.102539 
	C765.599060,249.072418 772.457886,250.125275 779.304321,251.253036 
	C800.976257,254.822891 822.641357,258.433868 844.313354,262.003601 
	C862.073364,264.928986 879.841248,267.806702 897.602051,270.727173 
	C910.153870,272.791138 922.690674,274.948547 935.250671,276.961365 
	C953.026428,279.809967 970.824341,282.520050 988.599609,285.371155 
	C1004.090393,287.855865 1019.563232,290.451569 1035.043335,293.002441 
	C1052.479248,295.875549 1069.911621,298.769257 1087.350342,301.624512 
	C1102.506836,304.106018 1117.670044,306.546387 1132.830200,309.004944 
	C1127.504028,315.215912 1122.208252,321.453247 1116.845459,327.632385 
	C1105.646729,340.535583 1094.455200,353.445221 1083.179199,366.280731 
	C1074.921875,375.680237 1066.502563,384.937256 1058.220093,394.314850 
	C1054.316528,398.734314 1050.564697,403.287750 1046.028076,407.856903 
	C1023.818542,404.287323 1002.332703,400.595154 980.829041,397.009705 
	C963.072205,394.048950 945.293396,391.219635 927.526001,388.322449 
	C914.644226,386.221954 901.766663,384.096466 888.884460,381.998657 
	C871.116272,379.105133 853.341614,376.251129 835.577209,373.334473 
	C823.023804,371.273346 810.491211,369.085022 797.934326,367.045746 
	C779.838684,364.106903 761.730103,361.247986 743.625854,358.362274 
	C730.248840,356.230072 716.848511,354.234436 703.498718,351.944397 
	C692.929443,350.131409 682.421143,347.963654 671.885742,345.953461 
z"/>
<path fill="#3103E1" opacity="1.000000" stroke="none" 
	d="
M526.883057,511.958466 
	C530.162659,507.895477 533.323242,503.729218 536.742737,499.787598 
	C550.406738,484.037231 564.116028,468.325745 577.879150,452.661926 
	C586.132141,443.269287 594.519897,433.995087 602.838501,424.660034 
	C605.350830,421.840698 607.834473,418.995819 610.883789,416.325012 
	C624.450195,418.761139 637.452942,421.101410 650.480591,423.293579 
	C671.990112,426.912964 693.507507,430.487396 715.036987,433.985657 
	C734.448669,437.139862 753.891296,440.104034 773.301331,443.267975 
	C790.587891,446.085754 807.834656,449.148468 825.123901,451.949158 
	C852.693787,456.415283 880.296448,460.679352 907.862610,465.167725 
	C933.631287,469.363373 959.370544,473.739716 985.122803,478.036560 
	C973.944763,490.658905 962.753113,503.269165 951.593689,515.907898 
	C944.454224,523.993774 937.362549,532.121765 929.889038,540.605713 
	C929.528625,540.980469 929.054504,541.096375 928.585083,541.068604 
	C896.328918,541.035461 864.539490,540.821533 832.757996,541.228333 
	C827.410889,541.296753 821.465271,543.017944 816.923706,545.809692 
	C810.718750,549.623901 805.594421,555.195984 799.994873,559.624817 
	C798.389526,558.157104 796.912231,556.402344 795.184692,556.105774 
	C777.936646,553.144775 760.641235,550.460999 743.371155,547.626038 
	C722.029541,544.122620 700.703491,540.525024 679.363098,537.014465 
	C659.328979,533.718994 639.289001,530.458557 619.244019,527.229675 
	C601.963501,524.446167 584.660400,521.801636 567.389771,518.959229 
	C553.869629,516.734070 540.384033,514.299805 526.883057,511.958466 
z"/>
<path fill="#6806EC" opacity="1.000000" stroke="none" 
	d="
M941.021301,38.314259 
	C954.667969,40.334179 968.161011,42.717129 981.673950,44.981270 
	C1003.330750,48.609932 1024.993042,52.207180 1046.667358,55.729027 
	C1066.063599,58.880726 1085.487183,61.862934 1104.884033,65.010719 
	C1126.397217,68.501945 1147.890137,72.117249 1169.398193,75.639221 
	C1188.627563,78.788040 1207.868896,81.863724 1227.098999,85.008469 
	C1242.578125,87.539803 1258.048706,90.123047 1273.522217,92.688873 
	C1287.197144,94.956482 1300.870605,97.231819 1314.797363,99.805496 
	C1311.883789,104.056549 1308.860107,108.130760 1305.526367,111.933022 
	C1292.836914,126.405762 1280.041138,140.785110 1267.297852,155.210663 
	C1259.895264,163.590485 1252.517090,171.991882 1244.572021,180.690231 
	C1236.034912,179.664551 1228.058594,178.302124 1220.071533,177.006042 
	C1202.302979,174.122696 1184.522949,171.309341 1166.759033,168.397354 
	C1152.087891,165.992340 1137.445068,163.414337 1122.768311,161.044220 
	C1104.995239,158.174026 1087.187866,155.515991 1069.417236,152.630920 
	C1048.061279,149.163788 1026.738770,145.489334 1005.382446,142.024551 
	C983.860596,138.532959 962.307800,135.233063 940.782043,131.765457 
	C923.010681,128.902618 905.240906,126.021530 887.509338,122.925652 
	C881.925354,121.950699 876.467224,120.254471 870.951538,118.888351 
	C873.629272,115.433571 876.136902,111.829422 879.015259,108.550720 
	C889.665588,96.419334 900.456970,84.411926 911.159424,72.326141 
	C921.089050,61.113220 930.972717,49.859657 941.021301,38.314259 
z"/>
<path fill="#3E04E4" opacity="1.000000" stroke="none" 
	d="
M985.431030,477.892365 
	C959.370544,473.739716 933.631287,469.363373 907.862610,465.167725 
	C880.296448,460.679352 852.693787,456.415283 825.123901,451.949158 
	C807.834656,449.148468 790.587891,446.085754 773.301331,443.267975 
	C753.891296,440.104034 734.448669,437.139862 715.036987,433.985657 
	C693.507507,430.487396 671.990112,426.912964 650.480591,423.293579 
	C637.452942,421.101410 624.450195,418.761139 611.194641,416.188171 
	C614.216064,411.842468 617.338013,407.671997 620.767151,403.771698 
	C633.743286,389.012512 646.839661,374.359131 659.844971,359.625488 
	C663.729370,355.224945 667.463257,350.691528 671.575928,346.086243 
	C682.421143,347.963654 692.929443,350.131409 703.498718,351.944397 
	C716.848511,354.234436 730.248840,356.230072 743.625854,358.362274 
	C761.730103,361.247986 779.838684,364.106903 797.934326,367.045746 
	C810.491211,369.085022 823.023804,371.273346 835.577209,373.334473 
	C853.341614,376.251129 871.116272,379.105133 888.884460,381.998657 
	C901.766663,384.096466 914.644226,386.221954 927.526001,388.322449 
	C945.293396,391.219635 963.072205,394.048950 980.829041,397.009705 
	C1002.332703,400.595154 1023.818542,404.287323 1045.715332,407.987793 
	C1035.986450,419.621277 1025.862793,431.207581 1015.720154,442.777283 
	C1006.005615,453.858612 996.266296,464.918274 986.563293,476.009674 
	C986.157043,476.474030 986.008118,477.163513 985.431030,477.892365 
z"/>
<path fill="#5305E8" opacity="1.000000" stroke="none" 
	d="
M1132.975464,308.694763 
	C1117.670044,306.546387 1102.506836,304.106018 1087.350342,301.624512 
	C1069.911621,298.769257 1052.479248,295.875549 1035.043335,293.002441 
	C1019.563232,290.451569 1004.090393,287.855865 988.599609,285.371155 
	C970.824341,282.520050 953.026428,279.809967 935.250671,276.961365 
	C922.690674,274.948547 910.153870,272.791138 897.602051,270.727173 
	C879.841248,267.806702 862.073364,264.928986 844.313354,262.003601 
	C822.641357,258.433868 800.976257,254.822891 779.304321,251.253036 
	C772.457886,250.125275 765.599060,249.072418 758.318298,247.971710 
	C761.162292,243.901794 764.291321,239.719955 767.730225,235.810699 
	C783.113403,218.323425 798.591248,200.919464 814.011841,183.465027 
	C815.188293,182.133408 816.185303,180.643234 817.987427,179.148727 
	C827.338013,180.497742 835.966614,181.926315 844.595703,183.351593 
	C866.094421,186.902557 887.590088,190.472336 909.093323,193.995819 
	C926.848328,196.905106 944.614563,199.746262 962.371887,202.641602 
	C975.245728,204.740707 988.109619,206.900986 1000.984314,208.994598 
	C1018.743225,211.882431 1036.512573,214.705383 1054.268799,217.609146 
	C1066.978760,219.687653 1079.666016,221.904068 1092.378296,223.967545 
	C1110.301147,226.876755 1128.237427,229.703461 1146.168579,232.561630 
	C1161.818848,235.056244 1177.470093,237.545563 1193.120850,240.037201 
	C1180.484863,254.455322 1167.855347,268.879181 1155.210327,283.289368 
	C1147.859985,291.665741 1140.484741,300.020233 1132.975464,308.694763 
z"/>
<path fill="#F70A64" opacity="1.000000" stroke="none" 
	d="
M788.135315,1063.531738 
	C787.256165,1064.205444 786.508362,1064.573975 784.990845,1064.999023 
	C777.144409,1064.997314 770.067688,1064.939209 762.993164,1064.502930 
	C762.400024,1062.647217 762.017761,1061.032593 761.170654,1059.717407 
	C758.214783,1055.127930 754.943298,1050.737671 752.073853,1046.097412 
	C745.362793,1035.244751 738.824097,1024.285400 732.198792,1013.379639 
	C727.205688,1005.160400 722.632935,996.640137 717.078979,988.817749 
	C707.697205,975.604248 697.512329,962.963318 688.008606,949.833069 
	C682.574768,942.325928 677.984924,934.213013 672.704773,926.587769 
	C668.661560,920.748840 663.751648,915.492920 659.900757,909.541870 
	C652.604614,898.266907 645.428040,886.882324 638.881531,875.163635 
	C632.442383,863.637207 623.063538,853.692566 620.067505,840.268616 
	C618.634033,833.845886 616.705566,827.533630 615.465576,821.103394 
	C629.951965,820.970886 643.974121,820.906372 658.394043,820.898376 
	C671.956116,818.623413 683.806824,813.112000 695.047607,806.334961 
	C697.245300,809.182922 699.373901,811.710693 701.540710,814.205322 
	C714.469543,829.089722 727.359924,844.007996 740.388184,858.804932 
	C742.558411,861.269775 745.632812,862.940674 747.791626,865.413025 
	C757.705200,876.766296 767.427673,888.286072 777.245422,899.723145 
	C793.537476,918.702515 809.820740,937.689575 826.176880,956.613586 
	C829.751343,960.749268 833.528564,964.720459 837.368896,968.613098 
	C843.189514,974.512939 849.147095,980.277649 855.046387,986.099731 
	C845.924011,996.670532 836.799072,1007.239197 827.680054,1017.812927 
	C817.273804,1029.879272 806.883118,1041.958862 796.462708,1054.013062 
	C793.774780,1057.122314 791.000977,1060.157349 788.135315,1063.531738 
z"/>
<path fill="#5D05EA" opacity="1.000000" stroke="none" 
	d="
M1193.432373,239.905914 
	C1177.470093,237.545563 1161.818848,235.056244 1146.168579,232.561630 
	C1128.237427,229.703461 1110.301147,226.876755 1092.378296,223.967545 
	C1079.666016,221.904068 1066.978760,219.687653 1054.268799,217.609146 
	C1036.512573,214.705383 1018.743225,211.882431 1000.984314,208.994598 
	C988.109619,206.900986 975.245728,204.740707 962.371887,202.641602 
	C944.614563,199.746262 926.848328,196.905106 909.093323,193.995819 
	C887.590088,190.472336 866.094421,186.902557 844.595703,183.351593 
	C835.966614,181.926315 827.338013,180.497742 818.298096,179.013245 
	C828.133118,167.263687 838.375671,155.568497 848.626587,143.880554 
	C855.856567,135.636932 863.097778,127.403168 870.642700,119.026688 
	C876.467224,120.254471 881.925354,121.950699 887.509338,122.925652 
	C905.240906,126.021530 923.010681,128.902618 940.782043,131.765457 
	C962.307800,135.233063 983.860596,138.532959 1005.382446,142.024551 
	C1026.738770,145.489334 1048.061279,149.163788 1069.417236,152.630920 
	C1087.187866,155.515991 1104.995239,158.174026 1122.768311,161.044220 
	C1137.445068,163.414337 1152.087891,165.992340 1166.759033,168.397354 
	C1184.522949,171.309341 1202.302979,174.122696 1220.071533,177.006042 
	C1228.058594,178.302124 1236.034912,179.664551 1244.425903,180.999207 
	C1239.775146,186.950623 1234.775879,192.953125 1229.641724,198.837952 
	C1217.710327,212.513702 1205.713989,226.132675 1193.432373,239.905914 
z"/>
<path fill="#FE645B" opacity="1.000000" stroke="none" 
	d="
M929.054565,541.096436 
	C929.054504,541.096375 929.528625,540.980469 929.762146,540.909241 
	C942.684875,540.905029 955.374023,540.972046 968.531250,541.490723 
	C973.126404,551.285278 976.491150,561.072144 981.598633,569.844177 
	C986.549255,578.347046 992.777283,586.265625 999.352295,593.630127 
	C1013.243713,609.189697 1027.603394,624.339111 1042.023926,639.414795 
	C1048.676392,646.369446 1055.802368,652.888550 1062.937012,659.359009 
	C1069.056152,664.908508 1075.594482,669.993896 1081.761353,675.493347 
	C1087.919067,680.984558 1093.888184,686.690430 1099.850830,692.395508 
	C1102.047363,694.497070 1103.989258,696.864868 1106.047241,699.111206 
	C1102.760376,703.175232 1099.588745,707.339050 1096.166626,711.285706 
	C1082.512817,727.032715 1068.803345,742.731628 1055.063232,758.403442 
	C1051.374512,762.610657 1047.504639,766.659119 1043.102295,770.770142 
	C1036.829224,766.178528 1031.082031,761.702698 1025.536743,756.989380 
	C1018.597961,751.091858 1011.923950,744.881653 1004.958862,739.016418 
	C992.312256,728.367065 979.597351,717.796326 966.786316,707.345642 
	C960.261536,702.022949 953.466125,697.031860 946.792114,691.892090 
	C937.747131,684.926575 928.213623,678.501038 919.775879,670.864685 
	C908.472229,660.634583 898.101379,649.380188 887.154480,638.746338 
	C882.889526,634.603333 877.952454,631.152710 873.682983,627.013733 
	C870.171448,623.609436 867.194092,619.653992 864.104248,615.626526 
	C867.353333,611.506165 870.370972,607.607727 873.621094,603.913879 
	C892.068176,582.947632 910.570801,562.030334 929.054565,541.096436 
z"/>
<path fill="#FF7459" opacity="1.000000" stroke="none" 
	d="
M1106.353882,698.967407 
	C1103.989258,696.864868 1102.047363,694.497070 1099.850830,692.395508 
	C1093.888184,686.690430 1087.919067,680.984558 1081.761353,675.493347 
	C1075.594482,669.993896 1069.056152,664.908508 1062.937012,659.359009 
	C1055.802368,652.888550 1048.676392,646.369446 1042.023926,639.414795 
	C1027.603394,624.339111 1013.243713,609.189697 999.352295,593.630127 
	C992.777283,586.265625 986.549255,578.347046 981.598633,569.844177 
	C976.491150,561.072144 973.126404,551.285278 968.995483,541.553833 
	C977.987061,541.107727 986.982300,541.002625 995.977600,541.000610 
	C1050.971436,540.988647 1105.966797,541.230408 1160.958008,540.864014 
	C1177.551392,540.753479 1193.266113,554.510376 1196.898804,569.419434 
	C1200.533691,584.337463 1196.271240,597.185181 1186.068970,608.520996 
	C1174.932983,620.894348 1164.237061,633.662476 1153.264038,646.183716 
	C1145.101929,655.497314 1136.785156,664.675049 1128.572144,673.944214 
	C1121.243408,682.215271 1113.962524,690.528809 1106.353882,698.967407 
z"/>
<path fill="#FE4D5D" opacity="1.000000" stroke="none" 
	d="
M863.979980,615.942749 
	C867.194092,619.653992 870.171448,623.609436 873.682983,627.013733 
	C877.952454,631.152710 882.889526,634.603333 887.154480,638.746338 
	C898.101379,649.380188 908.472229,660.634583 919.775879,670.864685 
	C928.213623,678.501038 937.747131,684.926575 946.792114,691.892090 
	C953.466125,697.031860 960.261536,702.022949 966.786316,707.345642 
	C979.597351,717.796326 992.312256,728.367065 1004.958862,739.016418 
	C1011.923950,744.881653 1018.597961,751.091858 1025.536743,756.989380 
	C1031.082031,761.702698 1036.829224,766.178528 1042.796753,770.904053 
	C1039.941895,774.990173 1036.902100,779.040710 1033.590210,782.855042 
	C1019.733093,798.815002 1005.802368,814.711182 991.872131,830.607666 
	C990.565857,832.098450 989.074768,833.427246 987.214844,834.659180 
	C980.585144,829.235046 974.370422,824.028809 968.244690,818.719910 
	C959.734985,811.344971 951.373535,803.797302 942.800720,796.497131 
	C930.831787,786.305115 918.609131,776.409119 906.711914,766.135315 
	C894.542297,755.626282 882.606323,744.845581 870.618469,734.127380 
	C851.331726,716.883423 832.100342,699.577515 812.793091,682.356567 
	C811.483765,681.188721 809.735718,680.512695 808.205688,679.240967 
	C815.160400,670.953674 822.101257,663.033325 829.340942,654.954956 
	C838.165833,644.899780 846.691895,635.002686 855.514893,624.947144 
	C858.534607,621.840088 861.257263,618.891418 863.979980,615.942749 
z"/>
<path fill="#F91862" opacity="1.000000" stroke="none" 
	d="
M855.359375,985.965637 
	C849.147095,980.277649 843.189514,974.512939 837.368896,968.613098 
	C833.528564,964.720459 829.751343,960.749268 826.176880,956.613586 
	C809.820740,937.689575 793.537476,918.702515 777.245422,899.723145 
	C767.427673,888.286072 757.705200,876.766296 747.791626,865.413025 
	C745.632812,862.940674 742.558411,861.269775 740.388184,858.804932 
	C727.359924,844.007996 714.469543,829.089722 701.540710,814.205322 
	C699.373901,811.710693 697.245300,809.182922 695.150146,806.005981 
	C697.841736,802.911133 700.482239,800.480652 703.456726,797.995117 
	C704.974182,796.812500 706.246033,795.763367 707.327332,794.545105 
	C718.834778,781.579468 730.311951,768.587036 741.944092,755.933777 
	C751.291931,764.584167 760.586975,772.801636 769.675171,781.241821 
	C790.239319,800.339600 810.790710,819.452942 831.155457,838.762329 
	C838.139832,845.384644 844.374756,852.792236 851.272095,859.512695 
	C859.949585,867.967590 869.009644,876.028320 877.806458,884.362732 
	C889.953247,895.871216 902.008484,907.476379 914.102905,919.040161 
	C903.457031,931.138489 892.786377,943.215088 882.172913,955.341797 
	C873.304565,965.474609 864.503235,975.666016 855.359375,985.965637 
z"/>
<path fill="#FB2B60" opacity="1.000000" stroke="none" 
	d="
M914.416260,918.907593 
	C902.008484,907.476379 889.953247,895.871216 877.806458,884.362732 
	C869.009644,876.028320 859.949585,867.967590 851.272095,859.512695 
	C844.374756,852.792236 838.139832,845.384644 831.155457,838.762329 
	C810.790710,819.452942 790.239319,800.339600 769.675171,781.241821 
	C760.586975,772.801636 751.291931,764.584167 742.056030,755.630432 
	C744.757507,751.694702 747.493774,748.394165 750.525391,744.949341 
	C756.214966,738.538757 761.609253,732.272339 767.300781,725.849854 
	C770.747375,722.203003 773.896729,718.712158 777.212524,715.496704 
	C783.419983,721.182190 789.488708,726.561890 795.495544,732.009766 
	C803.721069,739.469910 811.796143,747.099121 820.122803,754.443787 
	C832.157898,765.059509 844.414673,775.423584 856.472046,786.014404 
	C863.940308,792.574219 871.237427,799.330017 878.571289,806.041626 
	C898.376587,824.166321 918.150391,842.325562 937.959839,860.445801 
	C942.967163,865.026062 948.061218,869.511475 953.115417,874.040527 
	C943.783997,884.821716 934.435486,895.588257 925.129883,906.391724 
	C921.612244,910.475647 918.193481,914.644775 914.416260,918.907593 
z"/>
<path fill="#FD405E" opacity="1.000000" stroke="none" 
	d="
M953.423096,873.909790 
	C948.061218,869.511475 942.967163,865.026062 937.959839,860.445801 
	C918.150391,842.325562 898.376587,824.166321 878.571289,806.041626 
	C871.237427,799.330017 863.940308,792.574219 856.472046,786.014404 
	C844.414673,775.423584 832.157898,765.059509 820.122803,754.443787 
	C811.796143,747.099121 803.721069,739.469910 795.495544,732.009766 
	C789.488708,726.561890 783.419983,721.182190 777.356567,715.177734 
	C779.616272,711.830322 781.898315,709.077209 784.469604,706.144409 
	C791.567261,698.080078 798.375671,690.195496 805.442993,682.170105 
	C806.531799,681.222168 807.361755,680.415100 808.191772,679.607971 
	C809.735718,680.512695 811.483765,681.188721 812.793091,682.356567 
	C832.100342,699.577515 851.331726,716.883423 870.618469,734.127380 
	C882.606323,744.845581 894.542297,755.626282 906.711914,766.135315 
	C918.609131,776.409119 930.831787,786.305115 942.800720,796.497131 
	C951.373535,803.797302 959.734985,811.344971 968.244690,818.719910 
	C974.370422,824.028809 980.585144,829.235046 986.906738,834.800232 
	C984.124023,838.814148 981.339417,842.641541 978.237000,846.190979 
	C970.142578,855.451965 961.908875,864.591309 953.423096,873.909790 
z"/>
<path fill="#F2006A" opacity="1.000000" stroke="none" 
	d="
M480.993286,1359.835938 
	C458.305054,1359.901367 435.616791,1359.966675 412.464905,1360.099121 
	C410.005432,1360.110596 408.009613,1360.006592 406.013763,1360.006348 
	C331.693848,1359.998169 257.373810,1359.931885 183.054062,1360.048584 
	C165.192215,1360.076660 150.059769,1345.587524 146.925400,1328.702393 
	C144.163528,1313.823975 149.561829,1302.041504 159.159058,1291.271484 
	C173.163422,1275.555786 186.871628,1259.576538 200.771759,1243.767334 
	C209.039520,1234.364014 217.513840,1225.141846 225.750076,1215.711426 
	C236.123276,1203.834351 246.295151,1191.781494 256.654236,1179.891846 
	C264.551575,1170.827881 272.666107,1161.953247 280.574432,1152.898560 
	C291.275940,1140.645996 301.842957,1128.276001 312.526611,1116.007568 
	C317.935394,1109.796509 323.527069,1103.744873 328.942322,1097.539307 
	C339.857056,1085.031494 350.667816,1072.432983 361.598114,1059.938843 
	C369.513824,1050.890747 377.613678,1042.003662 385.522003,1032.949219 
	C396.223358,1020.696716 406.787109,1008.324158 417.474915,996.059692 
	C422.995209,989.725220 428.717072,983.566467 434.240570,977.234741 
	C445.043823,964.850769 455.729218,952.363770 466.544952,939.990723 
	C474.456848,930.939575 482.526459,922.026489 490.471527,913.004089 
	C494.483734,908.447815 498.375702,903.785828 502.779785,899.338623 
	C511.925781,908.607361 520.913025,917.446106 529.218262,926.884949 
	C537.523499,936.323914 545.205383,946.316101 553.052490,956.152039 
	C561.003723,966.118347 568.811523,976.199036 576.703552,986.212769 
	C581.828369,992.715210 587.183716,999.045959 592.089783,1005.708435 
	C598.470276,1014.373230 604.439514,1023.339478 610.716492,1032.082153 
	C614.864624,1037.859863 619.121643,1043.568726 623.542236,1049.139893 
	C633.504517,1061.695190 645.141418,1073.117920 649.919617,1089.315308 
	C644.191528,1095.906982 638.506165,1102.104980 633.077820,1108.520264 
	C628.842590,1113.525513 624.926697,1118.801147 620.585266,1124.114258 
	C616.162109,1128.753540 611.921753,1133.147461 607.913452,1137.743652 
	C604.463074,1141.699951 601.277161,1145.887085 597.674561,1150.120605 
	C587.910950,1161.177856 578.447083,1172.086426 568.682007,1183.141357 
	C557.923645,1195.187866 547.435913,1207.061401 537.029541,1219.005859 
	C534.223755,1222.226318 531.664917,1225.661987 528.692871,1229.144287 
	C519.432007,1239.473267 510.389008,1249.585815 501.528656,1259.855957 
	C487.370697,1276.266968 473.422821,1292.859741 459.200409,1309.214233 
	C453.874237,1315.338867 453.457703,1318.166870 458.033600,1324.100098 
	C463.845459,1331.635864 469.815216,1339.076416 475.149384,1346.942871 
	C477.759308,1350.791626 479.085876,1355.510742 480.993286,1359.835938 
z"/>
<path fill="#F60466" opacity="1.000000" stroke="none" 
	d="
M650.072998,1089.015137 
	C645.141418,1073.117920 633.504517,1061.695190 623.542236,1049.139893 
	C619.121643,1043.568726 614.864624,1037.859863 610.716492,1032.082153 
	C604.439514,1023.339478 598.470276,1014.373230 592.089783,1005.708435 
	C587.183716,999.045959 581.828369,992.715210 576.703552,986.212769 
	C568.811523,976.199036 561.003723,966.118347 553.052490,956.152039 
	C545.205383,946.316101 537.523499,936.323914 529.218262,926.884949 
	C520.913025,917.446106 511.925781,908.607361 503.095154,899.195618 
	C515.467468,884.593201 528.011902,870.326721 540.487183,855.999939 
	C550.364075,844.657227 560.156250,833.240662 570.362915,821.441956 
	C571.488770,820.960999 572.237610,820.894958 573.450806,820.904480 
	C587.610474,821.043762 601.305908,821.107544 615.001343,821.171326 
	C616.705566,827.533630 618.634033,833.845886 620.067505,840.268616 
	C623.063538,853.692566 632.442383,863.637207 638.881531,875.163635 
	C645.428040,886.882324 652.604614,898.266907 659.900757,909.541870 
	C663.751648,915.492920 668.661560,920.748840 672.704773,926.587769 
	C677.984924,934.213013 682.574768,942.325928 688.008606,949.833069 
	C697.512329,962.963318 707.697205,975.604248 717.078979,988.817749 
	C722.632935,996.640137 727.205688,1005.160400 732.198792,1013.379639 
	C738.824097,1024.285400 745.362793,1035.244751 752.073853,1046.097412 
	C754.943298,1050.737671 758.214783,1055.127930 761.170654,1059.717407 
	C762.017761,1061.032593 762.400024,1062.647217 762.526611,1064.542114 
	C737.825989,1064.977173 713.593445,1064.898193 689.362610,1065.066772 
	C681.290588,1065.122925 673.661438,1067.187012 666.732361,1072.243164 
	C660.971558,1077.904907 655.522278,1083.459961 650.072998,1089.015137 
z"/>
<path fill="#2202DF" opacity="1.000000" stroke="none" 
	d="
M526.575562,512.088074 
	C540.384033,514.299805 553.869629,516.734070 567.389771,518.959229 
	C584.660400,521.801636 601.963501,524.446167 619.244019,527.229675 
	C639.289001,530.458557 659.328979,533.718994 679.363098,537.014465 
	C700.703491,540.525024 722.029541,544.122620 743.371155,547.626038 
	C760.641235,550.460999 777.936646,553.144775 795.184692,556.105774 
	C796.912231,556.402344 798.389526,558.157104 799.846680,559.921692 
	C786.463989,575.725891 773.217651,590.843506 759.673218,606.118225 
	C754.051636,612.554016 748.687378,618.798889 743.419617,625.123962 
	C740.178772,629.015198 737.085388,633.029114 733.645874,637.121521 
	C732.248962,638.182861 731.131897,639.110657 730.009399,639.630554 
	C730.234497,636.288086 728.848267,635.319275 725.949158,634.879211 
	C711.083252,632.622437 696.257996,630.096985 681.420776,627.652283 
	C659.900513,624.106506 638.388977,620.507019 616.860840,617.009827 
	C597.450806,613.856750 578.015686,610.857788 558.605713,607.704163 
	C539.035278,604.524475 519.480652,601.247192 499.921936,597.995483 
	C485.906036,595.665283 471.894867,593.306885 457.881531,590.961060 
	C460.675446,587.385254 463.305786,583.665955 466.294434,580.261169 
	C474.651825,570.739990 483.247070,561.427246 491.581696,551.886597 
	C501.829224,540.156128 511.896698,528.268555 522.074097,516.476562 
	C523.373108,514.971497 524.865417,513.633240 526.575562,512.088074 
z"/>
<path fill="#0E01DB" opacity="1.000000" stroke="none" 
	d="
M331.883789,734.959778 
	C334.664490,731.397522 337.281738,727.691833 340.257111,724.300293 
	C348.579926,714.813538 357.139984,705.534546 365.440582,696.028687 
	C375.644836,684.342773 385.673615,672.503662 395.801666,660.750977 
	C396.878815,659.501038 398.112732,658.386230 399.951355,657.237915 
	C403.366852,657.844055 406.087341,658.528870 408.846008,658.980408 
	C426.106354,661.805481 443.381073,664.542908 460.639771,667.377808 
	C481.967041,670.881042 503.273224,674.513733 524.607422,677.973694 
	C544.151917,681.143494 563.732605,684.090332 583.277527,687.257690 
	C609.171570,691.453857 635.068726,695.641235 660.906982,700.161560 
	C665.107727,700.896484 670.506714,699.686646 672.927246,705.262329 
	C672.543701,706.017395 672.275452,706.513672 671.701538,707.152405 
	C668.502930,710.481323 665.504028,713.579163 662.747375,716.879272 
	C660.022888,720.140930 657.543152,723.606995 654.659058,727.132690 
	C651.596252,730.329224 648.799683,733.349121 646.070068,736.428406 
	C635.687744,748.140564 625.277344,759.828674 614.993408,771.626709 
	C612.439697,774.556458 610.321106,777.865417 607.701050,781.129028 
	C605.934265,782.507080 604.468811,783.756165 603.003052,784.607544 
	C603.163696,782.629150 603.324707,781.048340 603.505127,779.277405 
	C586.957642,776.510803 570.683105,773.778748 554.404358,771.071716 
	C542.184265,769.039551 529.964783,767.002441 517.734314,765.034119 
	C499.799927,762.147827 481.848541,759.366882 463.918640,756.453247 
	C451.202362,754.386780 438.518860,752.119202 425.804291,750.041931 
	C407.715149,747.086792 389.610779,744.224731 371.513184,741.321289 
	C358.303162,739.202148 345.093567,737.080383 331.883789,734.959778 
z"/>
<path fill="#1C02DD" opacity="1.000000" stroke="none" 
	d="
M673.042542,705.003540 
	C670.506714,699.686646 665.107727,700.896484 660.906982,700.161560 
	C635.068726,695.641235 609.171570,691.453857 583.277527,687.257690 
	C563.732605,684.090332 544.151917,681.143494 524.607422,677.973694 
	C503.273224,674.513733 481.967041,670.881042 460.639771,667.377808 
	C443.381073,664.542908 426.106354,661.805481 408.846008,658.980408 
	C406.087341,658.528870 403.366852,657.844055 400.261719,657.108032 
	C419.018524,635.037231 438.142365,613.125305 457.573883,591.087280 
	C471.894867,593.306885 485.906036,595.665283 499.921936,597.995483 
	C519.480652,601.247192 539.035278,604.524475 558.605713,607.704163 
	C578.015686,610.857788 597.450806,613.856750 616.860840,617.009827 
	C638.388977,620.507019 659.900513,624.106506 681.420776,627.652283 
	C696.257996,630.096985 711.083252,632.622437 725.949158,634.879211 
	C728.848267,635.319275 730.234497,636.288086 729.861694,639.926270 
	C726.282104,644.456726 722.745422,648.200073 719.437195,652.135498 
	C716.489502,655.641968 713.794739,659.361023 710.688232,663.131592 
	C703.590515,671.181824 696.792847,679.086731 689.692810,687.137085 
	C683.941162,693.189575 678.491821,699.096558 673.042542,705.003540 
z"/>
<path fill="#0600D9" opacity="1.000000" stroke="none" 
	d="
M331.575378,735.085205 
	C345.093567,737.080383 358.303162,739.202148 371.513184,741.321289 
	C389.610779,744.224731 407.715149,747.086792 425.804291,750.041931 
	C438.518860,752.119202 451.202362,754.386780 463.918640,756.453247 
	C481.848541,759.366882 499.799927,762.147827 517.734314,765.034119 
	C529.964783,767.002441 542.184265,769.039551 554.404358,771.071716 
	C570.683105,773.778748 586.957642,776.510803 603.505127,779.277405 
	C603.324707,781.048340 603.163696,782.629150 602.856079,784.907715 
	C599.903381,788.814270 597.011658,791.953186 594.314148,795.250916 
	C591.447571,798.755371 588.765198,802.410583 585.700562,806.144409 
	C581.261414,811.135620 577.123962,815.982300 572.986511,820.828979 
	C572.237610,820.894958 571.488770,820.960999 570.369812,821.097412 
	C568.005249,821.112305 566.010681,821.008545 564.016174,821.008362 
	C489.236694,821.001709 414.457184,820.994080 339.677704,821.013611 
	C320.605591,821.018616 303.259491,803.415710 302.916931,784.498108 
	C302.687592,771.831604 306.920959,761.401611 315.873383,752.492004 
	C321.331451,747.059937 326.157227,740.992615 331.575378,735.085205 
z"/>
<path fill="#F60466" opacity="1.000000" stroke="none" 
	d="
M481.458008,1359.904907 
	C479.085876,1355.510742 477.759308,1350.791626 475.149384,1346.942871 
	C469.815216,1339.076416 463.845459,1331.635864 458.033600,1324.100098 
	C453.457703,1318.166870 453.874237,1315.338867 459.200409,1309.214233 
	C473.422821,1292.859741 487.370697,1276.266968 501.528656,1259.855957 
	C510.389008,1249.585815 519.432007,1239.473267 528.842285,1229.447021 
	C546.625488,1243.451904 564.018188,1257.227173 581.253723,1271.196533 
	C585.768860,1274.856079 589.796021,1279.117676 594.047241,1283.102661 
	C578.869019,1300.717285 564.117737,1318.724365 548.390747,1335.834717 
	C533.124756,1352.443481 513.661255,1360.474731 490.913422,1360.013550 
	C487.917511,1359.952881 484.919647,1359.984863 481.458008,1359.904907 
z"/>
<path fill="#FE4D5D" opacity="1.000000" stroke="none" 
	d="
M649.919556,1089.315186 
	C655.522278,1083.459961 660.971558,1077.904907 666.719849,1072.614746 
	C668.021118,1075.084229 668.618347,1077.622681 670.105652,1079.427734 
	C673.795044,1083.905884 677.682190,1088.266968 681.871582,1092.276245 
	C688.340698,1098.467163 695.113892,1104.341309 701.784546,1110.320312 
	C709.878723,1117.575073 718.000305,1124.799438 726.110107,1132.036865 
	C721.900513,1137.271973 717.843872,1142.639648 713.449036,1147.714478 
	C704.696045,1157.822021 695.757080,1167.768677 686.232422,1177.888672 
	C674.218689,1168.667969 662.811584,1159.407471 651.532837,1149.992920 
	C641.239136,1141.400757 631.084656,1132.641968 620.868896,1123.956543 
	C624.926697,1118.801147 628.842590,1113.525513 633.077820,1108.520264 
	C638.506165,1102.104980 644.191528,1095.906982 649.919556,1089.315186 
z"/>
<path fill="#F91862" opacity="1.000000" stroke="none" 
	d="
M594.367188,1282.988037 
	C589.796021,1279.117676 585.768860,1274.856079 581.253723,1271.196533 
	C564.018188,1257.227173 546.625488,1243.451904 529.142090,1229.301514 
	C531.664917,1225.661987 534.223755,1222.226318 537.029541,1219.005859 
	C547.435913,1207.061401 557.923645,1195.187866 568.950806,1183.348877 
	C570.720764,1185.146729 571.631287,1187.215942 573.174683,1188.557373 
	C577.895935,1192.660522 582.830933,1196.521118 587.736023,1200.408813 
	C599.091370,1209.408936 610.467957,1218.382324 621.857117,1227.339600 
	C626.123474,1230.694946 630.448730,1233.975342 634.747070,1237.289795 
	C623.019958,1250.826538 611.304626,1264.373657 599.551392,1277.887939 
	C598.030212,1279.636841 596.313354,1281.215576 594.367188,1282.988037 
z"/>
<path fill="#FE645B" opacity="1.000000" stroke="none" 
	d="
M726.407471,1131.890259 
	C718.000305,1124.799438 709.878723,1117.575073 701.784546,1110.320312 
	C695.113892,1104.341309 688.340698,1098.467163 681.871582,1092.276245 
	C677.682190,1088.266968 673.795044,1083.905884 670.105652,1079.427734 
	C668.618347,1077.622681 668.021118,1075.084229 667.031372,1072.508057 
	C673.661438,1067.187012 681.290588,1065.122925 689.362610,1065.066772 
	C713.593445,1064.898193 737.825989,1064.977173 762.524414,1064.920410 
	C770.067688,1064.939209 777.144409,1064.997314 784.700806,1065.123047 
	C777.339417,1074.361938 769.569641,1083.595581 761.639648,1092.689575 
	C750.917847,1104.984985 740.078857,1117.178467 729.268494,1129.396484 
	C728.505005,1130.259521 727.563538,1130.964966 726.407471,1131.890259 
z"/>
<path fill="#FB2B60" opacity="1.000000" stroke="none" 
	d="
M634.996887,1237.124268 
	C630.448730,1233.975342 626.123474,1230.694946 621.857117,1227.339600 
	C610.467957,1218.382324 599.091370,1209.408936 587.736023,1200.408813 
	C582.830933,1196.521118 577.895935,1192.660522 573.174683,1188.557373 
	C571.631287,1187.215942 570.720764,1185.146729 569.251953,1183.202637 
	C578.447083,1172.086426 587.910950,1161.177856 597.816772,1150.434570 
	C599.677795,1152.160034 600.946899,1153.898804 602.547485,1155.242554 
	C605.831299,1157.999634 609.377625,1160.443848 612.665466,1163.196533 
	C623.031860,1171.875854 633.338806,1180.626465 643.648865,1189.372803 
	C649.809265,1194.598877 655.932373,1199.868774 662.072266,1205.119019 
	C655.226990,1213.388428 648.402344,1221.675171 641.523865,1229.916748 
	C639.510010,1232.329712 637.343262,1234.614990 634.996887,1237.124268 
z"/>
<path fill="#FD405E" opacity="1.000000" stroke="none" 
	d="
M662.407104,1205.046631 
	C655.932373,1199.868774 649.809265,1194.598877 643.648865,1189.372803 
	C633.338806,1180.626465 623.031860,1171.875854 612.665466,1163.196533 
	C609.377625,1160.443848 605.831299,1157.999634 602.547485,1155.242554 
	C600.946899,1153.898804 599.677795,1152.160034 598.116455,1150.286133 
	C601.277161,1145.887085 604.463074,1141.699951 607.913452,1137.743652 
	C611.921753,1133.147461 616.162109,1128.753540 620.585266,1124.114258 
	C631.084656,1132.641968 641.239136,1141.400757 651.532837,1149.992920 
	C662.811584,1159.407471 674.218689,1168.667969 685.951599,1178.051514 
	C678.469482,1187.062866 670.605713,1196.018433 662.407104,1205.046631 
z"/>
<path fill="#7007EE" opacity="1.000000" stroke="none" 
	d="
M759.971313,605.961121 
	C773.217651,590.843506 786.463989,575.725891 799.858582,560.311401 
	C805.594421,555.195984 810.718750,549.623901 816.923706,545.809692 
	C821.465271,543.017944 827.410889,541.296753 832.757996,541.228333 
	C864.539490,540.821533 896.328918,541.035461 928.585144,541.068604 
	C910.570801,562.030334 892.068176,582.947632 873.621094,603.913879 
	C870.370972,607.607727 867.353333,611.506165 864.104187,615.626465 
	C861.257263,618.891418 858.534607,621.840088 855.160400,624.775757 
	C849.909058,623.760376 845.341187,622.567749 840.703979,621.787415 
	C816.986450,617.796265 793.234985,614.003723 769.540283,609.883362 
	C766.223511,609.306702 763.154846,607.303833 759.971313,605.961121 
z"/>
<path fill="#2202DF" opacity="1.000000" stroke="none" 
	d="
M586.002441,806.000000 
	C588.765198,802.410583 591.447571,798.755371 594.314148,795.250916 
	C597.011658,791.953186 599.903381,788.814270 602.856506,785.305359 
	C604.468811,783.756165 605.934265,782.507080 608.055298,781.282227 
	C629.501526,784.870239 650.302429,788.375366 671.078430,792.022278 
	C681.782715,793.901367 692.442688,796.032776 703.122681,798.050171 
	C700.482239,800.480652 697.841736,802.911133 695.098755,805.670532 
	C683.806824,813.112000 671.956116,818.623413 658.337891,820.531067 
	C657.040833,819.421448 656.280701,818.296753 655.341492,818.119324 
	C647.547119,816.645996 639.718506,815.354309 631.902405,813.995117 
	C616.601624,811.334412 601.302368,808.665527 586.002441,806.000000 
z"/>
<path fill="#1C02DD" opacity="1.000000" stroke="none" 
	d="
M585.700623,806.144409 
	C601.302368,808.665527 616.601624,811.334412 631.902405,813.995117 
	C639.718506,815.354309 647.547119,816.645996 655.341492,818.119324 
	C656.280701,818.296753 657.040833,819.421448 657.940063,820.474487 
	C643.974121,820.906372 629.951965,820.970886 615.465576,821.103394 
	C601.305908,821.107544 587.610474,821.043762 573.450806,820.904480 
	C577.123962,815.982300 581.261414,811.135620 585.700623,806.144409 
z"/>
<path fill="#6806EC" opacity="1.000000" stroke="none" 
	d="
M759.673218,606.118225 
	C763.154846,607.303833 766.223511,609.306702 769.540283,609.883362 
	C793.234985,614.003723 816.986450,617.796265 840.703979,621.787415 
	C845.341187,622.567749 849.909058,623.760376 854.863403,624.934204 
	C846.691895,635.002686 838.165833,644.899780 829.272827,654.580200 
	C827.383057,653.571594 825.936646,652.327087 824.325867,652.054749 
	C794.204163,646.963623 764.062927,641.987854 733.925781,636.987976 
	C737.085388,633.029114 740.178772,629.015198 743.419617,625.123962 
	C748.687378,618.798889 754.051636,612.554016 759.673218,606.118225 
z"/>
<path fill="#5D05EA" opacity="1.000000" stroke="none" 
	d="
M733.645874,637.121521 
	C764.062927,641.987854 794.204163,646.963623 824.325867,652.054749 
	C825.936646,652.327087 827.383057,653.571594 828.974060,654.738281 
	C822.101257,663.033325 815.160400,670.953674 808.205688,679.240967 
	C807.361755,680.415100 806.531799,681.222168 805.259033,681.815063 
	C802.556885,680.743591 800.364746,679.472107 798.027771,679.092590 
	C772.450500,674.939636 746.836548,671.010803 721.273071,666.776672 
	C717.732666,666.190186 714.411194,664.282288 710.988342,662.986206 
	C713.794739,659.361023 716.489502,655.641968 719.437195,652.135498 
	C722.745422,648.200073 726.282104,644.456726 729.867126,640.334106 
	C731.131897,639.110657 732.248962,638.182861 733.645874,637.121521 
z"/>
<path fill="#3103E1" opacity="1.000000" stroke="none" 
	d="
M703.456726,797.995117 
	C692.442688,796.032776 681.782715,793.901367 671.078430,792.022278 
	C650.302429,788.375366 629.501526,784.870239 608.356689,781.153198 
	C610.321106,777.865417 612.439697,774.556458 614.993408,771.626709 
	C625.277344,759.828674 635.687744,748.140564 646.070068,736.428406 
	C648.799683,733.349121 651.596252,730.329224 654.993164,727.298950 
	C659.567200,728.311646 663.464355,729.575562 667.460815,730.257812 
	C686.991333,733.591736 706.565979,736.669067 726.087646,740.052734 
	C734.183167,741.455933 742.185364,743.397034 750.230042,745.093567 
	C747.493774,748.394165 744.757507,751.694702 741.909363,755.298584 
	C730.311951,768.587036 718.834778,781.579468 707.327332,794.545105 
	C706.246033,795.763367 704.974182,796.812500 703.456726,797.995117 
z"/>
<path fill="#3E04E4" opacity="1.000000" stroke="none" 
	d="
M750.525391,744.949341 
	C742.185364,743.397034 734.183167,741.455933 726.087646,740.052734 
	C706.565979,736.669067 686.991333,733.591736 667.460815,730.257812 
	C663.464355,729.575562 659.567200,728.311646 655.290161,727.149597 
	C657.543152,723.606995 660.022888,720.140930 662.747375,716.879272 
	C665.504028,713.579163 668.502930,710.481323 671.874146,707.475647 
	C674.481506,708.436829 676.551575,709.559570 678.749756,709.938416 
	C688.030151,711.538025 697.356079,712.871155 706.651794,714.384583 
	C724.100708,717.225342 741.552612,720.052002 758.970947,723.070984 
	C761.735046,723.550171 764.330261,725.003113 767.003540,726.005859 
	C761.609253,732.272339 756.214966,738.538757 750.525391,744.949341 
z"/>
<path fill="#4704E6" opacity="1.000000" stroke="none" 
	d="
M767.300781,725.849854 
	C764.330261,725.003113 761.735046,723.550171 758.970947,723.070984 
	C741.552612,720.052002 724.100708,717.225342 706.651794,714.384583 
	C697.356079,712.871155 688.030151,711.538025 678.749756,709.938416 
	C676.551575,709.559570 674.481506,708.436829 672.179932,707.333130 
	C672.275452,706.513672 672.543701,706.017395 672.927246,705.262329 
	C678.491821,699.096558 683.941162,693.189575 689.741821,687.512939 
	C693.831116,688.910950 697.493713,690.516418 701.319336,691.173767 
	C723.084534,694.914124 744.905212,698.331909 766.668640,702.082214 
	C772.574158,703.099915 778.346680,704.888977 784.180298,706.323975 
	C781.898315,709.077209 779.616272,711.830322 777.190186,714.902405 
	C773.896729,718.712158 770.747375,722.203003 767.300781,725.849854 
z"/>
<path fill="#5305E8" opacity="1.000000" stroke="none" 
	d="
M784.469543,706.144348 
	C778.346680,704.888977 772.574158,703.099915 766.668640,702.082214 
	C744.905212,698.331909 723.084534,694.914124 701.319336,691.173767 
	C697.493713,690.516418 693.831116,688.910950 690.044189,687.367432 
	C696.792847,679.086731 703.590515,671.181824 710.688232,663.131592 
	C714.411194,664.282288 717.732666,666.190186 721.273071,666.776672 
	C746.836548,671.010803 772.450500,674.939636 798.027771,679.092590 
	C800.364746,679.472107 802.556885,680.743591 805.000244,681.955872 
	C798.375671,690.195496 791.567261,698.080078 784.469543,706.144348 
z"/>
</svg>